<?xml version="1.0" encoding="UTF-8"?>
<svg version="1.1" xmlns="http://www.w3.org/2000/svg" width="515" height="484">
<path d="M0 0 C0 45.54 0 91.08 0 138 C33 138 66 138 100 138 C100 138.99 100 139.98 100 141 C98.6015625 142.359375 98.6015625 142.359375 96.625 143.75 C95.89442383 144.27086182 95.16384766 144.79172363 94.41113281 145.32836914 C93.61545898 145.88000732 92.81978516 146.43164551 92 147 C90.78715332 147.85742798 90.78715332 147.85742798 89.54980469 148.73217773 C87.04129365 150.50002715 84.52246114 152.25212573 82 154 C81.23236328 154.53383301 80.46472656 155.06766602 79.67382812 155.61767578 C75.69526414 158.38115063 71.70940823 161.13358865 67.69726562 163.84814453 C66.55551022 164.62300098 65.41883495 165.40539079 64.28710938 166.19482422 C60.2189281 169 60.2189281 169 58 169 C58 169.66 58 170.32 58 171 C56.25963506 172.30078823 54.45418109 173.51488895 52.625 174.6875 C46.99724682 178.34686063 41.48520504 182.13176908 36 186 C35.27039063 186.50660156 34.54078125 187.01320312 33.7890625 187.53515625 C27.26938085 192.06333105 20.84036485 196.7140139 14.41992188 201.38134766 C2.53604185 210 2.53604185 210 0 210 C0.02664734 211.10532074 0.05329468 212.21064148 0.08074951 213.34945679 C0.32459387 223.79426514 0.50416607 234.2384923 0.62174606 244.68550682 C0.68423224 250.05603524 0.76889329 255.42425655 0.90527344 260.79345703 C1.0362017 265.98081528 1.10751769 271.16596334 1.13852692 276.35484695 C1.16060646 278.32860736 1.20372874 280.30225404 1.26876068 282.27506638 C1.78170933 298.48902346 1.78170933 298.48902346 -2.61071777 303.46612549 C-6.46201159 307.04872776 -10.71471234 310.13444245 -16 311 C-16 311.66 -16 312.32 -16 313 C-17.984375 314.62890625 -17.984375 314.62890625 -20.75 316.5625 C-21.76449219 317.28308594 -22.77898437 318.00367188 -23.82421875 318.74609375 C-25.39623047 319.86177734 -25.39623047 319.86177734 -27 321 C-34.98060087 326.86444718 -42.80210845 332.92777741 -50.59399414 339.03955078 C-63.32843551 349 -63.32843551 349 -66 349 C-66 349.66 -66 350.32 -66 351 C-67.32 351.33 -68.64 351.66 -70 352 C-70 352.66 -70 353.32 -70 354 C-72.265625 355.91015625 -72.265625 355.91015625 -75.25 358.0625 C-76.22453125 358.77535156 -77.1990625 359.48820312 -78.203125 360.22265625 C-80.67819563 361.79550141 -82.21424755 362.40640668 -85 363 C-85.29765368 324.95224188 -85.52667442 286.90465935 -85.66384928 248.85597221 C-85.68010818 244.36247566 -85.69693439 239.86898141 -85.71411133 235.37548828 C-85.71922638 234.03364629 -85.71922638 234.03364629 -85.72444477 232.66469638 C-85.78098924 218.18607593 -85.88347479 203.70812752 -86.00298635 189.22990556 C-86.12462218 174.37023615 -86.19677758 159.51091831 -86.22315043 144.6507715 C-86.24097563 135.48319702 -86.29723505 126.31752201 -86.40291407 117.15053241 C-86.47171538 110.8615035 -86.49238397 104.5734542 -86.47551791 98.28407641 C-86.46720143 94.65630839 -86.4797971 91.03185432 -86.54967117 87.40467834 C-86.96953362 64.50420365 -86.96953362 64.50420365 -82.14728355 59.12290573 C-79.07390415 56.44579195 -75.69572969 54.70983881 -72 53 C-70.66495607 52.00228486 -69.33104071 51.00304955 -68 50 C-67.34 50 -66.68 50 -66 50 C-66 49.34 -66 48.68 -66 48 C-64.65478516 46.76318359 -64.65478516 46.76318359 -62.7890625 45.3984375 C-62.12132812 44.90859375 -61.45359375 44.41875 -60.765625 43.9140625 C-60.05921875 43.40617187 -59.3528125 42.89828125 -58.625 42.375 C-57.92632812 41.859375 -57.22765625 41.34375 -56.5078125 40.8125 C-51.26310351 37 -51.26310351 37 -49 37 C-49 36.34 -49 35.68 -49 35 C-43.58823529 31 -43.58823529 31 -41 31 C-41 30.34 -41 29.68 -41 29 C-39.015625 27.37109375 -39.015625 27.37109375 -36.25 25.4375 C-33.02270848 23.15621093 -29.80708549 20.87369864 -26.66796875 18.47265625 C-26.12817383 18.06023682 -25.58837891 17.64781738 -25.03222656 17.22290039 C-23.49790172 16.04631847 -21.96570321 14.86696528 -20.43359375 13.6875 C-18 12 -18 12 -16 12 C-16 11.34 -16 10.68 -16 10 C-10.58823529 6 -10.58823529 6 -8 6 C-8 5.34 -8 4.68 -8 4 C-2.58823529 0 -2.58823529 0 0 0 Z " fill="#030303" transform="translate(205,56)"/>
<path d="M0 0 C0.25182241 38.06485137 0.44562844 76.12957719 0.56171862 114.19509312 C0.57547626 118.6898779 0.58971382 123.18466103 0.60424805 127.67944336 C0.60713346 128.574267 0.61001888 129.46909063 0.61299173 130.39103014 C0.66084593 144.87669105 0.74756983 159.36187136 0.84868076 173.84724724 C0.95157778 188.71257383 1.01265271 203.57764888 1.03497344 218.443317 C1.05006124 227.61526488 1.0976954 236.78585439 1.18708114 245.95738406 C1.24526535 252.24821497 1.26279325 258.53834457 1.24851515 264.82942497 C1.24147392 268.45872378 1.25219582 272.08565112 1.31126022 275.71452713 C1.37490049 279.6534061 1.35283365 283.58921293 1.32279968 287.52854919 C1.35484094 288.66961811 1.38688219 289.81068703 1.4198944 290.98633379 C1.31688704 295.98554741 1.02667586 298.85920522 -2.39136922 302.657179 C-5.17192981 304.95526322 -7.99918707 307.00154006 -11 309 C-12.39129606 310.05307867 -13.7772413 311.11336189 -15.15234375 312.1875 C-16.4122323 313.12745814 -17.67395149 314.06496758 -18.9375 315 C-19.62150879 315.50998535 -20.30551758 316.0199707 -21.01025391 316.54541016 C-23.00512974 318.03258426 -25.0021756 319.51679029 -27 321 C-34.09023264 326.27013461 -41.10039181 331.62474217 -48.0625 337.0625 C-67.21816448 352 -67.21816448 352 -70 352 C-70 352.66 -70 353.32 -70 354 C-71.90412475 355.6354808 -73.79800671 357.13794613 -75.8125 358.625 C-76.35970703 359.04523438 -76.90691406 359.46546875 -77.47070312 359.8984375 C-81.62458147 363 -81.62458147 363 -85 363 C-85 317.13 -85 271.26 -85 224 C-118 224 -151 224 -185 224 C-185 223.34 -185 222.68 -185 222 C-183.6105957 220.79492188 -183.6105957 220.79492188 -181.67578125 219.46875 C-180.97646484 218.98792969 -180.27714844 218.50710938 -179.55664062 218.01171875 C-178.44579102 217.26341797 -178.44579102 217.26341797 -177.3125 216.5 C-176.59126953 216.00113281 -175.87003906 215.50226563 -175.12695312 214.98828125 C-171.53001246 212.53776277 -168.16664084 210.38066205 -164 209 C-164 208.34 -164 207.68 -164 207 C-161.98046875 205.5546875 -161.98046875 205.5546875 -159.1875 203.875 C-155.30949484 201.47526872 -151.54832755 199.01530168 -147.875 196.3125 C-142.9832029 192.71434288 -138.06831295 189.15194678 -133.125 185.625 C-132.39909668 185.10075439 -131.67319336 184.57650879 -130.92529297 184.03637695 C-127.39436499 181.52475769 -124.16436575 179.35546023 -120 178 C-120 177.34 -120 176.68 -120 176 C-119.00484375 175.45988281 -118.0096875 174.91976562 -116.984375 174.36328125 C-112.09624088 171.56918449 -107.75392568 168.12854723 -103.3125 164.68554688 C-102.65765625 164.18474609 -102.0028125 163.68394531 -101.328125 163.16796875 C-100.69099579 162.66441864 -100.05386658 162.16086853 -99.39743042 161.64205933 C-97 160 -97 160 -94.20046997 158.8631897 C-90.68803931 157.28676237 -88.55398076 155.9069954 -86 153 C-84.28285135 147.53326981 -84.82168719 141.55120658 -85.04912186 135.89790916 C-85.16565125 132.94014277 -85.21073056 129.98874343 -85.23739624 127.02888489 C-85.31707756 119.68348618 -85.50769106 112.34198616 -85.71502686 104.99920654 C-85.88834552 98.78991332 -86.00924381 92.58415846 -86.05726242 86.37258339 C-86.10079019 83.46947812 -86.22072303 80.57602168 -86.34317017 77.67533875 C-86.60495451 65.27815285 -86.60495451 65.27815285 -83.74582481 61.21976089 C-80.28480825 57.70023307 -76.2790527 55.39775315 -72 53 C-70.40469503 51.80174078 -68.82667944 50.57920018 -67.28515625 49.3125 C-59.91641598 43.52951331 -52.51127977 37.86110444 -44.84277344 32.48095703 C-40.27309774 29.2533398 -35.97727692 25.76066744 -31.6796875 22.18359375 C-19.18246869 12 -19.18246869 12 -16 12 C-16 11.34 -16 10.68 -16 10 C-13.74185152 8.20173555 -11.48722261 6.5253199 -9.125 4.875 C-8.47402344 4.40707031 -7.82304687 3.93914063 -7.15234375 3.45703125 C-2.26412172 0 -2.26412172 0 0 0 Z " fill="#FD0303" transform="translate(410,56)"/>
<path d="M0 0 C0.66 0.33 1.32 0.66 2 1 C-1.57858251 5.72884117 -1.57858251 5.72884117 -4.10888696 7.35695201 C-6.20122507 8.84594812 -6.20122507 8.84594812 -6.50320601 11.26414412 C-6.5047249 12.15914494 -6.50624378 13.05414576 -6.50780869 13.97626781 C-6.51925627 15.00984266 -6.53070386 16.0434175 -6.54249835 17.10831279 C-6.53473793 18.24740401 -6.52697752 19.38649523 -6.51898193 20.56010437 C-6.52648319 21.76731559 -6.53398444 22.97452681 -6.541713 24.21832019 C-6.55854021 27.5753019 -6.55740406 30.93142221 -6.54880548 34.28837883 C-6.5438734 37.90599572 -6.56192956 41.52350509 -6.57722473 45.14108276 C-6.6005721 51.4107424 -6.60928373 57.68028627 -6.60811615 63.94998741 C-6.60644909 73.01494621 -6.62675937 82.07975036 -6.65247145 91.14466796 C-6.69358674 105.85107644 -6.71687405 120.55745717 -6.72900391 135.26391602 C-6.7408265 149.55170358 -6.76101182 163.83943887 -6.79248047 178.12719727 C-6.79538462 179.44776055 -6.79538462 179.44776055 -6.79834744 180.79500189 C-6.8081118 185.21149132 -6.81804095 189.62798036 -6.82805204 194.04446924 C-6.91091942 230.69628848 -6.96487657 267.34810546 -7 304 C-5.68 303.67 -4.36 303.34 -3 303 C-4.3125 305 -4.3125 305 -6 307 C-6.99 307 -7.98 307 -9 307 C-9.20597336 268.90104549 -9.36457323 230.8021748 -9.45958797 192.70277622 C-9.4708444 188.20541436 -9.4824933 183.70805359 -9.49438477 179.21069336 C-9.49674556 178.3153451 -9.49910635 177.41999684 -9.50153869 176.49751682 C-9.54070698 161.99765648 -9.61167137 147.49811708 -9.69437516 132.99844717 C-9.77852173 118.12182014 -9.82852528 103.24536126 -9.84679645 88.36850601 C-9.85914946 79.18753624 -9.89817087 70.00747356 -9.9712482 60.82678301 C-10.0188013 54.53227853 -10.03320597 48.23824337 -10.0215124 41.94357228 C-10.01574381 38.31077983 -10.02461818 34.67957279 -10.07284927 31.04706192 C-10.12477154 27.10776831 -10.10689964 23.17054031 -10.08229065 19.23094177 C-10.12161401 17.51059987 -10.12161401 17.51059987 -10.16173178 15.75550359 C-10.0330058 8.14839193 -10.0330058 8.14839193 -6.92398632 4.69209683 C-4.68730881 2.93576499 -2.46819533 1.4078385 0 0 Z " fill="#848484" transform="translate(129,112)"/>
<path d="M0 0 C0.66 0 1.32 0 2 0 C2.11437786 37.76792031 2.20251451 75.53581458 2.25532665 113.30387296 C2.26158038 117.76003668 2.26805197 122.21620007 2.2746582 126.67236328 C2.27596976 127.55952663 2.27728131 128.44668997 2.2786326 129.36073706 C2.30040497 143.73640934 2.33983655 158.11198191 2.38576398 172.48759499 C2.43247773 187.23200989 2.46028462 201.97637247 2.47044247 216.72085834 C2.47731221 225.82325508 2.49902999 234.92537004 2.53958233 244.02768007 C2.56595803 250.2646257 2.57401279 256.50142509 2.56750689 262.73842248 C2.56429585 266.34003537 2.56930919 269.94115498 2.59602737 273.54268074 C2.62475321 277.44320948 2.61497386 281.34309013 2.60127258 285.24371338 C2.61583679 286.38767366 2.630401 287.53163393 2.64540654 288.71025968 C2.57213495 296.383406 2.57213495 296.383406 -0.53757954 299.73476791 C-1.35017829 300.1522945 -2.16277704 300.56982109 -3 301 C-2.67 299.35 -2.34 297.7 -2 296 C-1.34 296 -0.68 296 0 296 C0 199.31 0 102.62 0 3 C-0.66 2.67 -1.32 2.34 -2 2 C-1.34 1.34 -0.68 0.68 0 0 Z " fill="#E01110" transform="translate(407,58)"/>
<path d="M0 0 C0.66 0.33 1.32 0.66 2 1 C-1.36448107 5.48597476 -4.5807303 9.19357677 -10 11 C-10.33 11.66 -10.66 12.32 -11 13 C-12.7421875 13.78125 -12.7421875 13.78125 -14.875 14.5 C-17.67903704 15.45192401 -19.47581842 16.31721228 -22 18 C-22.72382467 20.05925139 -22.72382467 20.05925139 -23 22 C-21.29324852 22.0154612 -21.29324852 22.0154612 -19.55201721 22.03123474 C-8.85363589 22.12879137 1.84468495 22.23150814 12.5429678 22.33933926 C18.04367968 22.39461499 23.54439682 22.44804229 29.04516602 22.49731445 C34.34901283 22.54488958 39.65279276 22.59722963 44.95656013 22.65294075 C46.98483691 22.67339546 49.01313205 22.69210326 51.04144096 22.70907402 C53.87201484 22.73304932 56.70246105 22.76311287 59.53295898 22.79467773 C60.38028091 22.8004332 61.22760284 22.80618866 62.1006012 22.81211853 C67.88594784 22.88594784 67.88594784 22.88594784 69 24 C69.09634459 25.77160318 69.12187481 27.54708408 69.12025452 29.32130432 C69.12231651 31.05247498 69.12231651 31.05247498 69.12442017 32.81861877 C69.11902725 34.73480263 69.11902725 34.73480263 69.11352539 36.68969727 C69.11324352 38.03958128 69.11340125 39.38946544 69.1139679 40.73934937 C69.11425587 44.41480608 69.10835916 48.09023043 69.10139394 51.7656796 C69.09516038 55.60273149 69.0945566 59.43978404 69.09336853 63.27684021 C69.09025522 70.54771218 69.08204183 77.81856919 69.07201904 85.08943456 C69.0608579 93.36499352 69.05534745 101.64055318 69.05032361 109.91611779 C69.03985922 126.94408719 69.02225978 143.97204202 69 161 C69.60328125 160.59007812 70.2065625 160.18015625 70.828125 159.7578125 C71.62734375 159.21898437 72.4265625 158.68015625 73.25 158.125 C74.03890625 157.59132813 74.8278125 157.05765625 75.640625 156.5078125 C77.71555692 155.18177985 79.77614972 154.05071825 82 153 C82 153.66 82 154.32 82 155 C80.09587525 156.6354808 78.20199329 158.13794613 76.1875 159.625 C75.64029297 160.04523438 75.09308594 160.46546875 74.52929688 160.8984375 C70.37541853 164 70.37541853 164 67 164 C67 118.13 67 72.26 67 25 C34 25 1 25 -33 25 C-33 24.34 -33 23.68 -33 23 C-31.6105957 21.79492188 -31.6105957 21.79492188 -29.67578125 20.46875 C-28.97646484 19.98792969 -28.27714844 19.50710938 -27.55664062 19.01171875 C-26.81607422 18.51285156 -26.07550781 18.01398438 -25.3125 17.5 C-24.59126953 17.00113281 -23.87003906 16.50226563 -23.12695312 15.98828125 C-19.53001246 13.53776277 -16.16664084 11.38066205 -12 10 C-12 9.34 -12 8.68 -12 8 C-10.23596271 6.74163402 -8.41220501 5.5661735 -6.5625 4.4375 C-3.09563564 2.46466077 -3.09563564 2.46466077 0 0 Z " fill="#F16E6E" transform="translate(258,255)"/>
<path d="M0 0 C0 45.54 0 91.08 0 138 C33 138 66 138 100 138 C100 138.99 100 139.98 100 141 C99.01 141.33 98.02 141.66 97 142 C97 141.34 97 140.68 97 140 C64.66 140 32.32 140 -1 140 C-1 94.46 -1 48.92 -1 2 C-3.31 3.32 -5.62 4.64 -8 6 C-8 5.34 -8 4.68 -8 4 C-2.58823529 0 -2.58823529 0 0 0 Z " fill="#B4B4B4" transform="translate(205,56)"/>
<path d="M0 0 C0.66 0.33 1.32 0.66 2 1 C1.21625 1.763125 0.4325 2.52625 -0.375 3.3125 C-6.56859033 9.65355677 -6.1383683 16.88428942 -6.20532227 25.25195312 C-6.21522186 26.03340698 -6.22512146 26.81486084 -6.23532104 27.61999512 C-6.26662127 30.17371713 -6.29156736 32.72745768 -6.31640625 35.28125 C-6.33700305 37.06344047 -6.35800019 38.84562636 -6.37937927 40.62780762 C-6.43431861 45.29659285 -6.48385084 49.9654201 -6.53222656 54.63427734 C-6.5826483 59.40726416 -6.63822598 64.1801907 -6.69335938 68.953125 C-6.80059628 78.30203172 -6.90211638 87.650991 -7 97 C-7.99 97 -8.98 97 -10 97 C-10.0778877 85.38610837 -10.10728715 73.77319553 -10.07515812 62.15905666 C-10.06175376 56.76571313 -10.06491372 51.37344877 -10.10620117 45.98022461 C-10.14545007 40.77309453 -10.14083179 35.5676649 -10.10607719 30.36052132 C-10.10048767 28.37624353 -10.11058019 26.39185632 -10.13676643 24.40774345 C-10.32761311 8.79840398 -10.32761311 8.79840398 -6.92306519 4.18655396 C-4.67165786 2.41577702 -2.63201305 1.11146086 0 0 Z " fill="#F18585" transform="translate(334,112)"/>
<path d="M0 0 C0.33 0 0.66 0 1 0 C1 41.58 1 83.16 1 126 C2.65 124.68 4.3 123.36 6 122 C8.3125 122.25 8.3125 122.25 10 123 C8.71283353 124.00578589 7.42011342 125.00446798 6.125 126 C5.40570313 126.556875 4.68640625 127.11375 3.9453125 127.6875 C2 129 2 129 0 129 C0 86.43 0 43.86 0 0 Z " fill="#EF0909" transform="translate(327,287)"/>
<path d="M0 0 C0.66 0.33 1.32 0.66 2 1 C-1.36448107 5.48597476 -4.5807303 9.19357677 -10 11 C-10.33 11.66 -10.66 12.32 -11 13 C-12.92695726 13.69769142 -14.85485173 14.3929896 -16.7890625 15.0703125 C-20.27833869 16.53753464 -23.01005167 18.69524816 -26 21 C-26.66 20.67 -27.32 20.34 -28 20 C-26.2758698 18.70161824 -24.54546768 17.41156253 -22.8125 16.125 C-21.36810547 15.04605469 -21.36810547 15.04605469 -19.89453125 13.9453125 C-17.28871325 12.19403401 -14.95207856 11.02540206 -12 10 C-12 9.34 -12 8.68 -12 8 C-10.23596271 6.74163402 -8.41220501 5.5661735 -6.5625 4.4375 C-3.09563564 2.46466077 -3.09563564 2.46466077 0 0 Z " fill="#F07475" transform="translate(258,255)"/>
<path d="M0 0 C0.66 0.33 1.32 0.66 2 1 C1.39671875 1.43570313 0.7934375 1.87140625 0.171875 2.3203125 C-5.19201523 6.2136265 -5.19201523 6.2136265 -9.3125 11.3125 C-11.10524194 14.16760753 -11.97545528 14.77127871 -15 16 C-15.66 16.556875 -16.32 17.11375 -17 17.6875 C-19 19 -19 19 -21.125 18.58203125 C-22.053125 18.29392578 -22.053125 18.29392578 -23 18 C-18.01259764 13.63520372 -12.88611862 9.57022514 -7.5625 5.625 C-6.83095703 5.07972656 -6.09941406 4.53445312 -5.34570312 3.97265625 C-3.56545182 2.6461945 -1.78354706 1.32202499 0 0 Z " fill="#F38D8E" transform="translate(359,93)"/>
<path d="M0 0 C0.66 0.33 1.32 0.66 2 1 C1.04738281 1.73605469 0.09476562 2.47210938 -0.88671875 3.23046875 C-2.15378607 4.21596555 -3.4207053 5.20165278 -4.6875 6.1875 C-5.62625977 6.91163086 -5.62625977 6.91163086 -6.58398438 7.65039062 C-10.31347417 10.55978319 -13.7088816 13.58805383 -17 17 C-18.9559055 18.90528207 -20.76222387 20.38118323 -23 22 C-25.18359375 21.6328125 -25.18359375 21.6328125 -27 21 C-18.24787027 13.6571115 -9.1739018 6.80273019 0 0 Z " fill="#FDC4C0" transform="translate(388,71)"/>
<path d="M0 0 C0.66 0.33 1.32 0.66 2 1 C0.6875 3 0.6875 3 -1 5 C-1.99 5 -2.98 5 -4 5 C-4.23332031 5.60972656 -4.46664063 6.21945313 -4.70703125 6.84765625 C-6.34765225 9.57872021 -7.79692607 10.15821077 -10.6875 11.4375 C-15.22326891 13.55726428 -19.02056366 15.972168 -23 19 C-23.66 18.67 -24.32 18.34 -25 18 C-23.2126038 16.66094733 -21.41995047 15.32890934 -19.625 14 C-18.62726563 13.2575 -17.62953125 12.515 -16.6015625 11.75 C-14 10 -14 10 -12 10 C-12 9.34 -12 8.68 -12 8 C-10.948125 7.4225 -9.89625 6.845 -8.8125 6.25 C-5.6213518 4.4338994 -2.80510465 2.38008879 0 0 Z " fill="#F49694" transform="translate(302,224)"/>
<path d="M0 0 C0 0.66 0 1.32 0 2 C-0.66 2 -1.32 2 -2 2 C-2.268125 2.598125 -2.53625 3.19625 -2.8125 3.8125 C-4.09491886 6.17485053 -4.7929704 7.45507928 -7 9 C-9.67931112 9.55177892 -12.26287955 9.77564586 -15 10 C-12.63484129 6.45226194 -10.7766582 5.85130304 -7 4 C-1.97142857 0 -1.97142857 0 0 0 Z " fill="#E92F32" transform="translate(405,61)"/>
<path d="M0 0 C-0.4764991 4.28849188 -2.72587939 6.3664682 -6 9 C-9.8125 9.8125 -9.8125 9.8125 -13 10 C-3.28571429 0 -3.28571429 0 0 0 Z " fill="#E81212" transform="translate(384,77)"/>
<path d="M0 0 C0.66 0.33 1.32 0.66 2 1 C-1.0825539 5.56217977 -3.93729985 7.01108208 -9 9 C-11.33878876 10.56328365 -11.33878876 10.56328365 -13 12 C-13.66 11.67 -14.32 11.34 -15 11 C-10.05045893 7.25891831 -5.06294366 3.58625176 0 0 Z " fill="#F69A9A" transform="translate(275,243)"/>
<path d="M0 0 C-2.51830747 3.12270126 -3.7261549 3.94523098 -7.75 4.75 C-9.35875 4.87375 -9.35875 4.87375 -11 5 C-8.10998474 1.78887193 -4.47884754 -2.23942377 0 0 Z " fill="#EE0D0D" transform="translate(296,234)"/>
<path d="M0 0 C0.66 0.33 1.32 0.66 2 1 C-0.37502188 4.56253281 -2.15678195 5.22620705 -6 7 C-7.11375 7.556875 -8.2275 8.11375 -9.375 8.6875 C-10.24125 9.120625 -11.1075 9.55375 -12 10 C-12 9.34 -12 8.68 -12 8 C-10.23596271 6.74163402 -8.41220501 5.5661735 -6.5625 4.4375 C-3.09563564 2.46466077 -3.09563564 2.46466077 0 0 Z " fill="#F8B2B1" transform="translate(258,255)"/>
<path d="M0 0 C0.53625 0.268125 1.0725 0.53625 1.625 0.8125 C-2.25064767 4.42389896 -2.25064767 4.42389896 -4.375 5.8125 C-6.75 5.625 -6.75 5.625 -8.375 4.8125 C-2.95961538 -0.23365385 -2.95961538 -0.23365385 0 0 Z " fill="#EF6568" transform="translate(369.375,87.1875)"/>
<path d="M0 0 C0.66 0.33 1.32 0.66 2 1 C-0.41556126 4.19199167 -2.68003538 6.74716687 -6 9 C-6.66 8.67 -7.32 8.34 -8 8 C-3.375 2.25 -3.375 2.25 0 0 Z " fill="#6F6F6F" transform="translate(129,112)"/>
<path d="M0 0 C-3.465 2.97 -3.465 2.97 -7 6 C-7.66 5.67 -8.32 5.34 -9 5 C-6.5571003 0.23634558 -6.5571003 0.23634558 -3.9375 -0.875 C-2 -1 -2 -1 0 0 Z " fill="#F69090" transform="translate(377,381)"/>
<path d="M0 0 C-0.33 1.32 -0.66 2.64 -1 4 C-2.98 4.33 -4.96 4.66 -7 5 C-2.25 0 -2.25 0 0 0 Z " fill="#E3191C" transform="translate(235,274)"/>
<path d="M0 0 C0.66 0.33 1.32 0.66 2 1 C0.68 3.64 -0.64 6.28 -2 9 C-2.66 7.68 -3.32 6.36 -4 5 C-2.68 3.35 -1.36 1.7 0 0 Z " fill="#EF0C0E" transform="translate(260,255)"/>
<path d="M0 0 C0 0.99 0 1.98 0 3 C-0.99 3 -1.98 3 -3 3 C-3.33 4.32 -3.66 5.64 -4 7 C-4.66 6.67 -5.32 6.34 -6 6 C-6 5.01 -6 4.02 -6 3 C-2.66666667 0 -2.66666667 0 0 0 Z " fill="#E91719" transform="translate(269,250)"/>
<path d="M0 0 C0.99 0.33 1.98 0.66 3 1 C0.69 2.65 -1.62 4.3 -4 6 C-4 5.01 -4 4.02 -4 3 C-4.66 2.67 -5.32 2.34 -6 2 C-4.02 2 -2.04 2 0 2 C0 1.34 0 0.68 0 0 Z " fill="#E71717" transform="translate(355,393)"/>
<path d="M0 0 C0.66 0 1.32 0 2 0 C2 0.99 2 1.98 2 3 C0.7934375 3.433125 0.7934375 3.433125 -0.4375 3.875 C-3.1326468 4.73262568 -3.1326468 4.73262568 -4 7 C-4.66 6.67 -5.32 6.34 -6 6 C-4 4 -2 2 0 0 Z " fill="#E51A1A" transform="translate(307,222)"/>
</svg>
